<?xml version="1.0" encoding="UTF-8" standalone="no"?>
<!-- Created with Inkscape (http://www.inkscape.org/) -->

<svg
   xmlns:dc="http://purl.org/dc/elements/1.1/"
   xmlns:cc="http://creativecommons.org/ns#"
   xmlns:rdf="http://www.w3.org/1999/02/22-rdf-syntax-ns#"
   xmlns:svg="http://www.w3.org/2000/svg"
   xmlns="http://www.w3.org/2000/svg"
   xmlns:sodipodi="http://sodipodi.sourceforge.net/DTD/sodipodi-0.dtd"
   xmlns:inkscape="http://www.inkscape.org/namespaces/inkscape"
   width="210mm"
   height="297mm"
   viewBox="0 0 744.09448819 1052.3622047"
   id="svg2"
   version="1.1"
   inkscape:version="0.91 r13725"
   sodipodi:docname="basic-neuron.svg">
  <defs
     id="defs4" />
  <sodipodi:namedview
     id="base"
     pagecolor="#ffffff"
     bordercolor="#666666"
     borderopacity="1.0"
     inkscape:pageopacity="0.0"
     inkscape:pageshadow="2"
     inkscape:zoom="1"
     inkscape:cx="187.75835"
     inkscape:cy="1016.0334"
     inkscape:document-units="px"
     inkscape:current-layer="layer1"
     showgrid="false"
     inkscape:window-width="1600"
     inkscape:window-height="837"
     inkscape:window-x="-4"
     inkscape:window-y="-4"
     inkscape:window-maximized="1" />
  <metadata
     id="metadata7">
    <rdf:RDF>
      <cc:Work
         rdf:about="">
        <dc:format>image/svg+xml</dc:format>
        <dc:type
           rdf:resource="http://purl.org/dc/dcmitype/StillImage" />
        <dc:title />
      </cc:Work>
    </rdf:RDF>
  </metadata>
  <g
     inkscape:label="Layer 1"
     inkscape:groupmode="layer"
     id="layer1">
    <path
       style="fill:none;fill-rule:evenodd;stroke:#000000;stroke-width:1px;stroke-linecap:butt;stroke-linejoin:miter;stroke-opacity:1"
       d="m 106.5949,89.385958 9.83157,9.831569 3.62215,10.349023 11.90138,12.41882 12.93627,23.28529 15.00608,18.11079 19.66313,11.38392 27.42491,6.20941 8.27921,-0.51745 19.14569,-5.17451 10.86647,7.24431 13.45372,16.55843 7.24432,6.20941 7.76176,0 7.24431,6.20942 360.66333,2.0698 9.31411,-3.10471 -1.0349,-15.00607 3.62216,-8.79667 -0.51745,-4.65706 4.65706,-1.55235 2.58725,5.69196 -3.1047,3.62216 -2.58726,8.79666 1.0349,1.0349 6.72687,-13.45372 -2.06981,-10.34902 0,-6.72686 6.20941,1.55235 0,5.69196 -1.55235,4.65706 0,7.76176 8.27922,-6.72686 4.1396,-5.17451 4.65706,1.0349 0,6.20941 -2.58725,3.62216 -4.13961,-2.0698 -6.72686,5.17451 -3.62216,5.17451 -4.13961,4.65706 -3.62215,9.31411 -4.65706,6.20941 3.1047,4.65706 4.65706,1.55236 9.83157,-0.51745 5.17451,2.0698 4.65706,-2.0698 2.58725,2.58725 -0.51745,5.69196 -4.65706,3.10471 -2.58725,-3.10471 -5.17451,-2.0698 -4.65706,0 8.27922,5.69196 0.51745,7.76176 4.1396,4.13961 0,3.10471 -6.72686,2.0698 -2.0698,-3.10471 0,-3.62215 0,-9.31412 -9.31412,-5.69196 -2.0698,6.20941 1.55235,3.62216 2.58725,1.55235 0,4.13961 -3.62215,2.0698 -3.62216,-1.55235 0,-4.65706 -0.51745,-5.17451 -3.62216,2.0698 -3.1047,1.03491 -2.58726,-4.13961 1.0349,-1.55235 3.10471,-0.51746 4.65706,-3.62215 1.0349,-3.62216 -5.69196,-3.62216 -365.32038,1.55236 -7.24431,4.65706 -10.34902,4.65705 -4.13961,10.34902 -4.13961,8.79667 -15.52353,8.79667 -12.93627,5.69196 -8.27922,0 -10.34902,-1.0349 -5.17451,6.72686 -2.0698,19.66313 -1.55235,7.76177 11.38392,22.76784 9.83157,13.45373 -1.03491,4.1396 -4.65705,0 -0.51746,-6.20941 -6.20941,-8.27921 -6.72686,-16.55843 -2.0698,-4.65706 -5.17451,20.69804 -2.06981,17.07588 -5.69196,8.79666 -1.55235,8.27922 -4.13961,3.62216 0,6.20941 -4.13961,2.0698 -1.55235,-2.0698 3.10471,-12.93628 1.55235,0 3.10471,-6.20941 3.1047,-7.24431 -8.79667,3.62216 -12.41882,-0.51745 -1.0349,-2.06981 1.55235,-2.58725 7.24432,0 5.69196,0 9.31411,-4.65706 3.10471,-16.55843 3.10471,-15.00608 3.1047,-18.11078 1.55235,-18.11079 -9.31411,-13.97117 -13.97118,-8.27922 -7.76176,-16.55843 -12.93628,-6.72686 -13.97117,2.58725 -15.52353,10.34902 -8.27922,10.34902 -12.93627,1.0349 -15.00608,10.86647 -3.622157,13.45373 -7.244313,9.83157 -16.04098,6.20941 -2.069804,5.69196 -6.726863,1.55235 0,-4.65706 3.622157,0 1.034902,-6.72686 6.209412,-3.10471 13.971176,-3.62215 5.69196,-16.55843 -13.453725,-2.58726 -11.383921,-15.00608 0.517451,-4.1396 4.139608,0 1.034902,4.1396 4.657058,3.62216 3.622157,7.24431 12.418823,2.58726 12.418823,-10.34902 -3.104705,-16.04098 -3.104706,-14.48863 -6.726863,-13.45372 -10.349019,-10.34902 -4.139608,-10.86647 2.069804,-1.55236 2.587255,0 1.552353,5.69196 6.209411,10.34902 7.761765,9.83157 4.657058,9.31412 2.587255,9.31412 1.034904,12.41882 3.62216,6.20941 9.83156,0 6.20941,-6.20941 8.79667,-7.76176 10.34902,-5.69196 10.34902,-4.65706 7.76176,-1.03491 8.79667,-5.1745 9.31412,-5.69197 2.0698,-14.48862 0,-8.27922 -4.65706,-7.24431 -10.86647,-4.65706 -8.27921,-5.69196 -8.79667,-11.38392 -4.13961,-6.20941 -19.66313,2.0698 -11.38392,-2.0698 -13.97118,-6.72687 -9.831569,-5.17451 -8.279215,-1.55235 -1.552353,-5.17451 5.17451,-1.55235 4.657058,3.1047 7.244314,4.13961 9.831565,4.65706 8.79667,3.62216 11.38392,2.0698 14.48863,-2.0698 -8.79667,-15.52353 -8.79667,-10.86647 -5.1745,-6.72686 -2.06981,-7.24432 -5.69196,-6.209409 -2.58725,-2.587255 -1.03491,-4.139608 z"
       id="path3355"
       inkscape:connector-curvature="0" />
    <text
       xml:space="preserve"
       style="font-style:normal;font-weight:normal;font-size:40px;line-height:125%;font-family:sans-serif;letter-spacing:0px;word-spacing:0px;fill:#000000;fill-opacity:1;stroke:none;stroke-width:1px;stroke-linecap:butt;stroke-linejoin:miter;stroke-opacity:1"
       x="76.049843"
       y="65.084549"
       id="text3357"
       sodipodi:linespacing="125%"><tspan
         sodipodi:role="line"
         id="tspan3359"
         x="76.049843"
         y="65.084549"
         style="font-size:20px">Dendrites</tspan></text>
    <path
       style="display:inline;fill:none;fill-rule:evenodd;stroke:#000000;stroke-width:0.85650945px;stroke-linecap:butt;stroke-linejoin:miter;stroke-opacity:1"
       d="M 120.58353,66.454821 103.39872,90.477539"
       id="path3361"
       inkscape:connector-type="polyline"
       inkscape:connector-curvature="0" />
    <path
       style="fill:none;fill-rule:evenodd;stroke:#000000;stroke-width:1px;stroke-linecap:butt;stroke-linejoin:miter;stroke-opacity:1"
       d="M 73.994439,176.76135 119.8984,65.769687"
       id="path3363"
       inkscape:connector-type="polyline"
       inkscape:connector-curvature="0" />
    <path
       style="fill:none;fill-rule:evenodd;stroke:#000000;stroke-width:1px;stroke-linecap:butt;stroke-linejoin:miter;stroke-opacity:1"
       d="M 165.80235,339.82316 119.21326,65.769687"
       id="path3365"
       inkscape:connector-type="polyline"
       inkscape:connector-curvature="0" />
    <path
       style="fill:none;fill-rule:evenodd;stroke:#000000;stroke-width:1px;stroke-linecap:butt;stroke-linejoin:miter;stroke-opacity:1"
       d="M 53.440428,290.49354 119.21326,67.825088"
       id="path3367"
       inkscape:connector-type="polyline"
       inkscape:connector-curvature="0" />
    <text
       xml:space="preserve"
       style="font-style:normal;font-weight:normal;font-size:40px;line-height:125%;font-family:sans-serif;letter-spacing:0px;word-spacing:0px;fill:#000000;fill-opacity:1;stroke:none;stroke-width:1px;stroke-linecap:butt;stroke-linejoin:miter;stroke-opacity:1"
       x="189.09691"
       y="212.38829"
       id="text3369"
       sodipodi:linespacing="125%"><tspan
         sodipodi:role="line"
         id="tspan3371"
         x="189.09691"
         y="212.38829"
         style="font-size:16.25px">Neuron</tspan><tspan
         sodipodi:role="line"
         x="189.09691"
         y="232.70079"
         style="font-size:16.25px"
         id="tspan3373">body</tspan></text>
    <text
       xml:space="preserve"
       style="font-style:normal;font-weight:normal;font-size:40px;line-height:125%;font-family:sans-serif;letter-spacing:0px;word-spacing:0px;fill:#000000;fill-opacity:1;stroke:none;stroke-width:1px;stroke-linecap:butt;stroke-linejoin:miter;stroke-opacity:1"
       x="400.11807"
       y="206.90721"
       id="text3375"
       sodipodi:linespacing="125%"><tspan
         sodipodi:role="line"
         id="tspan3377"
         x="400.11807"
         y="206.90721"
         style="font-size:20px">Axon</tspan></text>
    <text
       xml:space="preserve"
       style="font-style:normal;font-weight:normal;font-size:40px;line-height:125%;font-family:sans-serif;letter-spacing:0px;word-spacing:0px;fill:#000000;fill-opacity:1;stroke:none;stroke-width:1px;stroke-linecap:butt;stroke-linejoin:miter;stroke-opacity:1"
       x="618.67572"
       y="285.01245"
       id="text3379"
       sodipodi:linespacing="125%"><tspan
         sodipodi:role="line"
         id="tspan3381"
         x="618.67572"
         y="285.01245"
         style="font-size:17.5px">Synaptic</tspan><tspan
         sodipodi:role="line"
         x="618.67572"
         y="306.88745"
         style="font-size:17.5px"
         id="tspan3383">terminations</tspan></text>
    <path
       style="fill:none;fill-rule:evenodd;stroke:#000000;stroke-width:1px;stroke-linecap:butt;stroke-linejoin:miter;stroke-opacity:1"
       d="M 668.69048,267.88413 647.45134,232.94231"
       id="path3385"
       inkscape:connector-type="polyline"
       inkscape:connector-curvature="0" />
    <path
       style="fill:none;fill-rule:evenodd;stroke:#000000;stroke-width:1px;stroke-linecap:butt;stroke-linejoin:miter;stroke-opacity:1"
       d="m 675.54182,221.98017 -7.53647,43.84856"
       id="path3387"
       inkscape:connector-type="polyline"
       inkscape:connector-curvature="0" />
    <path
       style="fill:none;fill-rule:evenodd;stroke:#000000;stroke-width:1px;stroke-linecap:butt;stroke-linejoin:miter;stroke-opacity:1"
       d="m 663.89455,172.65054 2.74053,91.80792"
       id="path3389"
       inkscape:connector-type="polyline"
       inkscape:connector-curvature="0" />
  </g>
</svg>
